<?xml version="1.0" encoding="utf-8"?>
<!-- Generator: Adobe Illustrator 20.0.0, SVG Export Plug-In . SVG Version: 6.00 Build 0)  -->
<svg version="1.1" xmlns="http://www.w3.org/2000/svg" xmlns:xlink="http://www.w3.org/1999/xlink" x="0px" y="0px"
	 viewBox="0 0 792 612" style="enable-background:new 0 0 792 612;" xml:space="preserve">
<style type="text/css">
	.st0{display:none;}
	.st1{display:inline;fill:#D6E4EA;}
	.st2{fill:#B1CBD6;stroke:#FFFFFF;stroke-width:80;stroke-miterlimit:10;}
	.st3{fill:#B1CBD6;}
	.st4{fill:#4F1A35;stroke:#FFFFFF;stroke-width:14;stroke-miterlimit:10;}
	.st5{fill:#FFE2A9;stroke:#FFFFFF;stroke-width:14;stroke-miterlimit:10;}
	.st6{fill:#C4B7C2;stroke:#FFFFFF;stroke-width:14;stroke-miterlimit:10;}
	.st7{fill:#513E34;stroke:#FFFFFF;stroke-width:14;stroke-miterlimit:10;}
	.st8{fill:#939E8F;stroke:#FFFFFF;stroke-width:14;stroke-miterlimit:10;}
	.st9{opacity:0.44;fill:url(#SVGID_1_);stroke:#FFFFFF;stroke-width:14;stroke-miterlimit:10;}
	.st10{opacity:0.44;fill:url(#SVGID_2_);stroke:#FFFFFF;stroke-width:14;stroke-miterlimit:10;}
	.st11{fill:#4F1A35;}
	.st12{fill:#FFE2A9;}
	.st13{fill:#C4B7C2;}
	.st14{fill:#513E34;}
	.st15{fill:#939E8F;}
	.st16{opacity:0.44;fill:url(#SVGID_3_);}
	.st17{opacity:0.44;fill:url(#SVGID_4_);}
</style>
<g id="Layer_4" class="st0">
	<rect class="st1" width="792" height="612"/>
</g>
<g id="Layer_2">
	<ellipse class="st2" cx="393.2" cy="303.6" rx="193.8" ry="194.3"/>
	<ellipse class="st3" cx="393.2" cy="303.6" rx="193.8" ry="194.3"/>
</g>
<g id="Layer_1">
	<path class="st4" d="M318.9,435.4c0,0,8.7-46.5,17.8-49.8C345.9,382.3,352.9,446.5,318.9,435.4z"/>
	<g>

			<ellipse transform="matrix(0.9439 -0.3301 0.3301 0.9439 -102.8436 111.0662)" class="st5" cx="275.6" cy="358.3" rx="9.4" ry="19.7"/>
		<path class="st5" d="M266.8,356.7c0,0-24.2-4.3-21.2-10.4c3-6.1,16.9,1.1,24.3,4.1S266.8,356.7,266.8,356.7z"/>
		<path class="st5" d="M264.1,350.6c0,0-20.6-13.4-15.5-17.8s15.2,7.5,20.8,13.2C275,351.6,264.1,350.6,264.1,350.6z"/>
		<path class="st5" d="M265.5,343.4c0,0-15.1-19.4-8.8-21.9c6.3-2.5,11.9,12.1,15.3,19.3S265.5,343.4,265.5,343.4z"/>
		<path class="st5" d="M270.5,339.9c0,0-9.5-22.6-2.8-23.4c6.7-0.8,8.3,14.8,9.8,22.6C278.9,346.8,270.5,339.9,270.5,339.9z"/>
		<path class="st5" d="M273.5,346.1c0,0,3.8-24.3,9.9-21.4c6.1,2.8-0.7,16.9-3.6,24.4C277,356.4,273.5,346.1,273.5,346.1z"/>
	</g>
	<path class="st5" d="M373,276.9c0,0,17.7,50.6-10.7,59.4c-28.3,8.8,60.7,4,60.7,4s-17.8-30.8-4.9-73.4"/>
	<path class="st4" d="M359.9,334.6c0,0,28,8.8,67.8,0c39.8-8.8,42.2,147.4,42.2,147.4l-138.4,5.8
		C331.6,487.9,330.6,342.8,359.9,334.6z"/>
	<path class="st6" d="M318.1,158.5c0,0-57.3,28.4-6.6,226c0,0,8.9,19.6,42,5.4c33.1-14.2,24.2-92.5,24.2-92.5L318.1,158.5z"/>
	<path class="st5" d="M460.1,199.6c6.1,89.7-52.5,113-92.4,104.6c-67.5-14.2-55.3-61.3-55.3-104.6s33.1-78.3,73.9-78.3
		S457.2,156.5,460.1,199.6z"/>
	<polygon class="st7" points="338.2,191.5 339,199.6 320.5,201.2 314.9,205.1 319.7,193.2 	"/>
	<path class="st7" d="M404.2,218.7l6.3-5.9l-8.8,0.8c0,0-4.7-5.1-6.9,2.2C392.5,223,404.2,218.7,404.2,218.7z"/>
	<path class="st7" d="M326.6,218.7l-6.3-5.9l8.8,0.8c0,0,4.7-5.1,6.9,2.2C338.2,223,326.6,218.7,326.6,218.7z"/>
	<ellipse class="st8" cx="331.6" cy="218.7" rx="5.1" ry="5.9"/>
	<ellipse class="st8" cx="399.1" cy="218.7" rx="5.1" ry="5.9"/>
	<path class="st6" d="M318.9,164.9c0,0,34.8,62.5,141.7,43.6c0,0,6.3-80.7-74.3-87.1C305.6,115,318.9,164.9,318.9,164.9z"/>
	<path class="st7" d="M356.1,253.4c0,0,8.5,10.3-2.5,16.6C353.6,270,360.1,264.6,356.1,253.4z"/>
	<path class="st7" d="M379.1,253.2c0,0-8.5,10.3,2.5,16.6C381.6,269.8,375.1,264.4,379.1,253.2z"/>
	<path class="st7" d="M359.3,261.7h10C369.2,261.7,364.1,263.5,359.3,261.7z"/>
	<path class="st7" d="M366,261.7h10C376,261.7,370.8,263.5,366,261.7z"/>
	<linearGradient id="SVGID_1_" gradientUnits="userSpaceOnUse" x1="383.0539" y1="261.4911" x2="421.0892" y2="261.4911">
		<stop  offset="0" style="stop-color:#662D91;stop-opacity:0.2"/>
		<stop  offset="1" style="stop-color:#DA1C5C;stop-opacity:0.5"/>
	</linearGradient>
	<ellipse class="st9" cx="402.1" cy="261.5" rx="19" ry="11.5"/>
	<linearGradient id="SVGID_2_" gradientUnits="userSpaceOnUse" x1="315.6545" y1="261.4911" x2="353.6898" y2="261.4911">
		<stop  offset="0" style="stop-color:#662D91;stop-opacity:0.2"/>
		<stop  offset="1" style="stop-color:#DA1C5C;stop-opacity:0.5"/>
	</linearGradient>
	<ellipse class="st10" cx="334.7" cy="261.5" rx="19" ry="11.5"/>
	<path class="st6" d="M423,212.8c0,0-25.6,169.7,8.1,175.7s65.4,6.7,62.1-55.3c-3.4-62.1,2.1-191.8-70.2-201"/>
	<path class="st4" d="M326.6,469.5c0,0,0.4-4.6,0.7-11.5"/>
	<path class="st4" d="M336.3,447.4c0,0-19.2-81.8-41.4-81.8c0,0,4.7-20.9-20.2-10.1c-25,10.8-6.1,18.2-6.1,18.2s-12.6,72.2,22,98.5
		c34.7,26.3,80.4-8.4,80.4-8.4L336.3,447.4z"/>
	<path class="st4" d="M331.7,485.8c0,0,59.5,43.7,138.2-3.8"/>
	<path class="st11" d="M318.9,435.4c0,0,8.7-46.5,17.8-49.8C345.9,382.3,352.9,446.5,318.9,435.4z"/>
	<g>

			<ellipse transform="matrix(0.9439 -0.3301 0.3301 0.9439 -102.8436 111.0662)" class="st12" cx="275.6" cy="358.3" rx="9.4" ry="19.7"/>
		<path class="st12" d="M266.8,356.7c0,0-24.2-4.3-21.2-10.4c3-6.1,16.9,1.1,24.3,4.1S266.8,356.7,266.8,356.7z"/>
		<path class="st12" d="M264.1,350.6c0,0-20.6-13.4-15.5-17.8s15.2,7.5,20.8,13.2C275,351.6,264.1,350.6,264.1,350.6z"/>
		<path class="st12" d="M265.5,343.4c0,0-15.1-19.4-8.8-21.9c6.3-2.5,11.9,12.1,15.3,19.3S265.5,343.4,265.5,343.4z"/>
		<path class="st12" d="M270.5,339.9c0,0-9.5-22.6-2.8-23.4c6.7-0.8,8.3,14.8,9.8,22.6C278.9,346.8,270.5,339.9,270.5,339.9z"/>
		<path class="st12" d="M273.5,346.1c0,0,3.8-24.3,9.9-21.4c6.1,2.8-0.7,16.9-3.6,24.4C277,356.4,273.5,346.1,273.5,346.1z"/>
	</g>
	<path class="st12" d="M373,276.9c0,0,17.7,50.6-10.7,59.4c-28.3,8.8,60.7,4,60.7,4s-17.8-30.8-4.9-73.4"/>
	<path class="st11" d="M359.9,334.6c0,0,28,8.8,67.8,0c39.8-8.8,42.2,147.4,42.2,147.4l-138.4,5.8
		C331.6,487.9,330.6,342.8,359.9,334.6z"/>
	<path class="st13" d="M318.1,158.5c0,0-57.3,28.4-6.6,226c0,0,8.9,19.6,42,5.4c33.1-14.2,24.2-92.5,24.2-92.5L318.1,158.5z"/>
	<path class="st12" d="M460.1,199.6c6.1,89.7-52.5,113-92.4,104.6c-67.5-14.2-55.3-61.3-55.3-104.6s33.1-78.3,73.9-78.3
		S457.2,156.5,460.1,199.6z"/>
	<polygon class="st14" points="338.2,191.5 339,199.6 320.5,201.2 314.9,205.1 319.7,193.2 	"/>
	<path class="st14" d="M404.2,218.7l6.3-5.9l-8.8,0.8c0,0-4.7-5.1-6.9,2.2C392.5,223,404.2,218.7,404.2,218.7z"/>
	<path class="st14" d="M326.6,218.7l-6.3-5.9l8.8,0.8c0,0,4.7-5.1,6.9,2.2C338.2,223,326.6,218.7,326.6,218.7z"/>
	<ellipse class="st15" cx="331.6" cy="218.7" rx="5.1" ry="5.9"/>
	<ellipse class="st15" cx="399.1" cy="218.7" rx="5.1" ry="5.9"/>
	<path class="st13" d="M318.9,164.9c0,0,34.8,62.5,141.7,43.6c0,0,6.3-80.7-74.3-87.1C305.6,115,318.9,164.9,318.9,164.9z"/>
	<path class="st14" d="M356.1,253.4c0,0,8.5,10.3-2.5,16.6C353.6,270,360.1,264.6,356.1,253.4z"/>
	<path class="st14" d="M379.1,253.2c0,0-8.5,10.3,2.5,16.6C381.6,269.8,375.1,264.4,379.1,253.2z"/>
	<path class="st14" d="M359.3,261.7h10C369.2,261.7,364.1,263.5,359.3,261.7z"/>
	<path class="st14" d="M366,261.7h10C376,261.7,370.8,263.5,366,261.7z"/>
	<linearGradient id="SVGID_3_" gradientUnits="userSpaceOnUse" x1="383.0539" y1="261.4911" x2="421.0892" y2="261.4911">
		<stop  offset="0" style="stop-color:#662D91;stop-opacity:0.2"/>
		<stop  offset="1" style="stop-color:#DA1C5C;stop-opacity:0.5"/>
	</linearGradient>
	<ellipse class="st16" cx="402.1" cy="261.5" rx="19" ry="11.5"/>
	<linearGradient id="SVGID_4_" gradientUnits="userSpaceOnUse" x1="315.6545" y1="261.4911" x2="353.6898" y2="261.4911">
		<stop  offset="0" style="stop-color:#662D91;stop-opacity:0.2"/>
		<stop  offset="1" style="stop-color:#DA1C5C;stop-opacity:0.5"/>
	</linearGradient>
	<ellipse class="st17" cx="334.7" cy="261.5" rx="19" ry="11.5"/>
	<path class="st13" d="M423,212.8c0,0-25.6,169.7,8.1,175.7s65.4,6.7,62.1-55.3c-3.4-62.1,2.1-191.8-70.2-201"/>
	<path class="st11" d="M326.6,469.5c0,0,0.4-4.6,0.7-11.5"/>
	<path class="st11" d="M336.3,447.4c0,0-19.2-81.8-41.4-81.8c0,0,4.7-20.9-20.2-10.1c-25,10.8-6.1,18.2-6.1,18.2s-12.6,72.2,22,98.5
		c34.7,26.3,80.4-8.4,80.4-8.4L336.3,447.4z"/>
	<path class="st11" d="M331.7,485.8c0,0,59.5,43.7,138.2-3.8"/>
</g>
<g id="Layer_3">
</g>
</svg>
